<svg xmlns="http://www.w3.org/2000/svg" aria-hidden="true" style="position:absolute;width:0;height:0;overflow:hidden"><defs><symbol id="icon-burger" viewBox="0 0 32 32"><path stroke-linecap="round" stroke-linejoin="round" stroke-width="2.4" d="M28 13.333H4M28 8H4M28 18.667H4M28 24H4"/></symbol><symbol id="icon-check" viewBox="0 0 32 32"><path stroke-linecap="round" stroke-linejoin="round" stroke-width="3.692" d="M26.666 8 11.999 22.667 5.332 16"/></symbol><symbol id="icon-close" viewBox="0 0 32 32"><path stroke-linecap="round" stroke-linejoin="round" stroke-width="2.4" d="M24 8 8 24M8 8l16 16"/></symbol><symbol id="icon-facebook" viewBox="0 0 32 32">
<path fill="#fff" style="fill: var(--color1, #fff)" d="M29 16c0-2.571-0.762-5.085-2.191-7.222s-3.459-3.804-5.834-4.788c-2.375-0.984-4.989-1.241-7.511-0.74s-4.838 1.74-6.656 3.558c-1.818 1.818-3.056 4.134-3.558 6.656s-0.244 5.136 0.74 7.511c0.984 2.375 2.65 4.406 4.788 5.834s4.651 2.191 7.222 2.191c3.447-0.003 6.752-1.374 9.189-3.811s3.808-5.742 3.811-9.189zM17 26.95v-7.95h3c0.265 0 0.52-0.105 0.707-0.293s0.293-0.442 0.293-0.707c0-0.265-0.105-0.52-0.293-0.707s-0.442-0.293-0.707-0.293h-3v-3c0-0.53 0.211-1.039 0.586-1.414s0.884-0.586 1.414-0.586h2c0.265 0 0.52-0.105 0.707-0.293s0.293-0.442 0.293-0.707c0-0.265-0.105-0.52-0.293-0.707s-0.442-0.293-0.707-0.293h-2c-1.060 0.003-2.075 0.426-2.825 1.175s-1.172 1.765-1.175 2.825v3h-3c-0.265 0-0.52 0.105-0.707 0.293s-0.293 0.442-0.293 0.707c0 0.265 0.105 0.52 0.293 0.707s0.442 0.293 0.707 0.293h3v7.95c-2.819-0.257-5.43-1.592-7.291-3.725s-2.827-4.902-2.698-7.73c0.129-2.828 1.343-5.497 3.389-7.453s4.768-3.047 7.599-3.047 5.552 1.091 7.599 3.047c2.047 1.956 3.261 4.625 3.389 7.453s-0.838 5.596-2.698 7.73-4.472 3.468-7.291 3.725z"></path>
</symbol><symbol id="icon-instagram-icon" viewBox="0 0 32 32"><path d="M16 10a5.998 5.998 0 0 0-4.242 10.243 5.996 5.996 0 0 0 6.539 1.301 5.999 5.999 0 0 0-2.296-11.543zm0 10a4.004 4.004 0 0 1-3.695-2.469 3.992 3.992 0 0 1 .867-4.359A4 4 0 0 1 20 16a4.014 4.014 0 0 1-4 4zm5.5-16.5h-11a6.999 6.999 0 0 0-7 7v11a6.999 6.999 0 0 0 7 7h11a7.003 7.003 0 0 0 7-7v-11a7.003 7.003 0 0 0-7-7zm5 18c0 .657-.129 1.307-.381 1.913s-.62 1.158-1.084 1.622A5.004 5.004 0 0 1 21.5 26.5h-11c-.657 0-1.307-.129-1.913-.381s-1.158-.62-1.622-1.084A5.004 5.004 0 0 1 5.5 21.5v-11a4.997 4.997 0 0 1 5-5h11c.657 0 1.307.129 1.913.381s1.158.62 1.622 1.084A5.004 5.004 0 0 1 26.5 10.5v11zM24 9.5a1.495 1.495 0 0 1-.926 1.385 1.496 1.496 0 0 1-1.635-.326c-.21-.21-.353-.477-.41-.768s-.028-.593.085-.867a1.5 1.5 0 0 1 2.885.574z"/></symbol><symbol id="icon-logo" viewBox="0 0 229 32"><path d="M0 32V0h5.702l14.084 10.383h.213L34.083 0h5.702v32h-6.808V8.951l-9.659 6.803V32H16.51V15.754L6.809 8.951V32H.001zM46.174 32V0h6.808v32h-6.808zM59.356 32V0h6.893l21.53 23.004V0h6.808v32h-6.893L66.164 8.951V32h-6.808zM100.96 32V0h6.808v32h-6.808zM114.142 32V0h5.701l14.084 10.383h.213L148.224 0h5.702v32h-6.808V8.951l-9.659 6.803V32h-6.808V15.754l-9.701-6.803V32h-6.808zM157.764 32l13.701-32h10.51l13.701 32h-7.404l-2.893-6.758h-17.317L165.169 32h-7.403zm12.764-12.576h12.382l-5.914-13.829h-.553l-5.914 13.829zM199.51 32V0h6.808v26.182h22.253V32H199.51z"/></symbol><symbol id="icon-Send" viewBox="0 0 83 32"><path d="M16.652 23.214c0-.637-.1-1.2-.3-1.687-.188-.5-.525-.95-1.012-1.35-.475-.4-1.137-.781-1.988-1.144-.838-.363-1.9-.731-3.188-1.106-1.35-.4-2.569-.844-3.656-1.331-1.088-.5-2.019-1.069-2.794-1.706s-1.369-1.369-1.781-2.194c-.413-.825-.619-1.769-.619-2.831s.219-2.044.656-2.944a6.906 6.906 0 0 1 1.875-2.344c.825-.675 1.806-1.2 2.944-1.575s2.406-.563 3.806-.563c2.05 0 3.787.394 5.213 1.181 1.437.775 2.531 1.794 3.281 3.056a7.667 7.667 0 0 1 1.125 4.013h-3.6c0-1.025-.219-1.931-.656-2.719-.438-.8-1.1-1.425-1.988-1.875-.887-.463-2.012-.694-3.375-.694-1.287 0-2.35.194-3.188.581s-1.463.912-1.875 1.575c-.4.663-.6 1.419-.6 2.269 0 .575.119 1.1.356 1.575.25.463.631.894 1.144 1.294.525.4 1.188.769 1.988 1.106.812.338 1.781.662 2.906.975 1.55.437 2.888.925 4.013 1.463s2.05 1.144 2.775 1.819c.738.663 1.281 1.419 1.631 2.269.363.837.544 1.788.544 2.85 0 1.113-.225 2.119-.675 3.019s-1.094 1.669-1.931 2.306c-.837.638-1.844 1.131-3.019 1.481-1.162.337-2.463.506-3.9.506-1.262 0-2.506-.175-3.731-.525a11.127 11.127 0 0 1-3.319-1.575 8.237 8.237 0 0 1-2.381-2.588c-.588-1.037-.881-2.237-.881-3.6h3.6c0 .938.181 1.744.544 2.419a4.8 4.8 0 0 0 1.481 1.65 6.894 6.894 0 0 0 2.156.975c.812.2 1.656.3 2.531.3 1.262 0 2.331-.175 3.206-.525s1.537-.85 1.988-1.5c.462-.65.694-1.419.694-2.306zm16.144 7.275c-1.412 0-2.694-.238-3.844-.713a8.714 8.714 0 0 1-2.944-2.044c-.813-.875-1.437-1.913-1.875-3.113s-.656-2.512-.656-3.938v-.788c0-1.65.244-3.119.731-4.406.487-1.3 1.15-2.4 1.987-3.3s1.788-1.581 2.85-2.044a8.182 8.182 0 0 1 3.3-.694c1.45 0 2.7.25 3.75.75 1.063.5 1.931 1.2 2.606 2.1.675.887 1.175 1.938 1.5 3.15.325 1.2.487 2.513.487 3.937v1.556h-15.15v-2.831h11.681v-.262a8.652 8.652 0 0 0-.563-2.625c-.313-.85-.813-1.55-1.5-2.1s-1.625-.825-2.813-.825c-.787 0-1.513.169-2.175.506-.663.325-1.231.813-1.706 1.463s-.844 1.444-1.106 2.381c-.262.938-.394 2.019-.394 3.244v.788c0 .963.131 1.869.394 2.719a6.955 6.955 0 0 0 1.181 2.212 5.672 5.672 0 0 0 1.894 1.5c.75.363 1.6.544 2.55.544 1.225 0 2.263-.25 3.113-.75s1.594-1.169 2.231-2.006l2.1 1.669c-.438.662-.994 1.294-1.669 1.894s-1.506 1.087-2.494 1.462c-.975.375-2.131.563-3.469.563zm15.412-16.331v15.956h-3.469V9.826h3.281l.188 4.331zm-.825 5.044-1.444-.056c.012-1.387.219-2.669.619-3.844.4-1.188.963-2.219 1.687-3.094s1.588-1.55 2.588-2.025c1.012-.488 2.131-.731 3.356-.731 1 0 1.9.137 2.7.412.8.262 1.481.688 2.044 1.275.575.588 1.012 1.35 1.312 2.287.3.925.45 2.056.45 3.394v13.294h-3.488V16.783c0-1.063-.156-1.912-.469-2.55-.313-.65-.769-1.119-1.369-1.406-.6-.3-1.338-.45-2.212-.45-.862 0-1.65.181-2.363.544a5.67 5.67 0 0 0-1.819 1.5 7.53 7.53 0 0 0-1.181 2.194 8.018 8.018 0 0 0-.413 2.587zm31.369 6.975V1.314h3.488v28.8h-3.187l-.3-3.938zm-13.65-5.981v-.394c0-1.55.188-2.956.563-4.219.387-1.275.931-2.369 1.631-3.281.713-.912 1.556-1.613 2.531-2.1.988-.5 2.088-.75 3.3-.75 1.275 0 2.388.225 3.338.675a6.434 6.434 0 0 1 2.438 1.931c.675.838 1.206 1.85 1.594 3.037s.656 2.531.806 4.031v1.725c-.138 1.488-.406 2.825-.806 4.013-.387 1.187-.919 2.2-1.594 3.037a6.666 6.666 0 0 1-2.438 1.931c-.963.437-2.087.656-3.375.656-1.187 0-2.275-.256-3.263-.769a7.688 7.688 0 0 1-2.531-2.156c-.7-.925-1.244-2.013-1.631-3.262-.375-1.262-.563-2.631-.563-4.106zm3.488-.394v.394c0 1.012.1 1.963.3 2.85.212.887.537 1.669.975 2.344s.994 1.206 1.669 1.594c.675.375 1.481.563 2.419.563 1.15 0 2.094-.244 2.831-.731.75-.487 1.35-1.131 1.8-1.931s.8-1.669 1.05-2.606V17.76c-.15-.688-.369-1.35-.656-1.988a6.1 6.1 0 0 0-1.088-1.725 4.703 4.703 0 0 0-1.631-1.219c-.637-.3-1.394-.45-2.269-.45-.95 0-1.769.2-2.456.6a4.782 4.782 0 0 0-1.669 1.613c-.438.675-.762 1.462-.975 2.363-.2.887-.3 1.837-.3 2.85z"/></symbol><symbol id="icon-Subscribe" viewBox="0 0 169 32"><path d="M17.719 22.967c0-.637-.1-1.2-.3-1.687-.188-.5-.525-.95-1.012-1.35-.475-.4-1.137-.781-1.988-1.144-.838-.363-1.9-.731-3.188-1.106-1.35-.4-2.569-.844-3.656-1.331-1.088-.5-2.019-1.069-2.794-1.706S3.412 13.274 3 12.449c-.413-.825-.619-1.769-.619-2.831s.219-2.044.656-2.944A6.906 6.906 0 0 1 4.912 4.33c.825-.675 1.806-1.2 2.944-1.575s2.406-.563 3.806-.563c2.05 0 3.787.394 5.213 1.181 1.437.775 2.531 1.794 3.281 3.056a7.667 7.667 0 0 1 1.125 4.013h-3.6c0-1.025-.219-1.931-.656-2.719-.438-.8-1.1-1.425-1.988-1.875-.887-.463-2.012-.694-3.375-.694-1.287 0-2.35.194-3.188.581s-1.463.912-1.875 1.575c-.4.662-.6 1.419-.6 2.269 0 .575.119 1.1.356 1.575.25.463.631.894 1.144 1.294.525.4 1.188.769 1.988 1.106.812.338 1.781.662 2.906.975 1.55.437 2.888.925 4.013 1.463s2.05 1.144 2.775 1.819c.738.663 1.281 1.419 1.631 2.269.363.837.544 1.788.544 2.85 0 1.113-.225 2.119-.675 3.019s-1.094 1.669-1.931 2.306c-.837.638-1.844 1.131-3.019 1.481-1.162.337-2.463.506-3.9.506-1.262 0-2.506-.175-3.731-.525a11.115 11.115 0 0 1-3.319-1.575A8.25 8.25 0 0 1 2.4 25.554c-.587-1.037-.881-2.237-.881-3.6h3.6c0 .938.181 1.744.544 2.419a4.792 4.792 0 0 0 1.481 1.65 6.894 6.894 0 0 0 2.156.975c.812.2 1.656.3 2.531.3 1.262 0 2.331-.175 3.206-.525s1.538-.85 1.988-1.5c.462-.65.694-1.419.694-2.306zm20.137 2.212v-15.6h3.488v20.288h-3.319l-.169-4.688zm.656-4.275 1.444-.038c0 1.35-.144 2.6-.431 3.75-.275 1.137-.725 2.125-1.35 2.962s-1.444 1.494-2.456 1.969c-1.012.462-2.244.694-3.694.694-.988 0-1.894-.144-2.719-.431-.813-.287-1.513-.731-2.1-1.331s-1.044-1.381-1.369-2.344c-.313-.963-.469-2.119-.469-3.469V9.578h3.469v13.125c0 .912.1 1.669.3 2.269.212.587.494 1.056.844 1.406.362.337.762.575 1.2.713.45.138.912.206 1.388.206 1.475 0 2.644-.281 3.506-.844a4.812 4.812 0 0 0 1.856-2.306c.387-.975.581-2.056.581-3.244zm8.1-19.837H50.1V25.93l-.3 3.938h-3.188v-28.8zm17.194 18.487v.394c0 1.475-.175 2.844-.525 4.106-.35 1.25-.862 2.337-1.538 3.262s-1.5 1.644-2.475 2.156c-.975.513-2.094.769-3.356.769-1.287 0-2.419-.219-3.394-.656-.963-.45-1.775-1.094-2.438-1.931s-1.194-1.85-1.594-3.037c-.387-1.188-.656-2.525-.806-4.013v-1.725c.15-1.5.419-2.844.806-4.031.4-1.188.931-2.2 1.594-3.037a6.41 6.41 0 0 1 2.438-1.931c.962-.45 2.081-.675 3.356-.675s2.406.25 3.394.75a6.682 6.682 0 0 1 2.475 2.1c.675.912 1.187 2.006 1.538 3.281.35 1.263.525 2.669.525 4.219zm-3.487.394v-.394c0-1.012-.094-1.963-.281-2.85-.188-.9-.487-1.688-.9-2.363a4.486 4.486 0 0 0-1.631-1.613c-.675-.4-1.506-.6-2.494-.6-.875 0-1.638.15-2.288.45-.637.3-1.181.706-1.631 1.219-.45.5-.819 1.075-1.106 1.725a9.927 9.927 0 0 0-.619 1.988v4.519c.2.875.525 1.719.975 2.531a5.893 5.893 0 0 0 1.838 1.969c.775.513 1.731.769 2.869.769.937 0 1.737-.188 2.4-.563a4.52 4.52 0 0 0 1.631-1.594c.425-.675.737-1.456.938-2.344s.3-1.837.3-2.85zm19.687 4.537c0-.5-.112-.962-.338-1.388-.212-.437-.656-.831-1.331-1.181-.662-.362-1.662-.675-3-.937a23.657 23.657 0 0 1-3.056-.844c-.9-.325-1.669-.719-2.306-1.181-.625-.462-1.106-1.006-1.444-1.631s-.506-1.356-.506-2.194c0-.8.175-1.556.525-2.269a6.075 6.075 0 0 1 1.519-1.894c.663-.55 1.456-.981 2.381-1.294s1.956-.469 3.094-.469c1.625 0 3.012.287 4.163.863s2.031 1.344 2.644 2.306a5.73 5.73 0 0 1 .919 3.169h-3.469c0-.563-.169-1.106-.506-1.631-.325-.537-.806-.981-1.444-1.331-.625-.35-1.394-.525-2.306-.525-.962 0-1.744.15-2.344.45-.588.287-1.019.656-1.294 1.106a2.78 2.78 0 0 0-.394 1.425c0 .375.063.713.188 1.012.137.288.375.556.713.806.338.238.812.462 1.425.675s1.394.425 2.344.637c1.662.375 3.031.825 4.106 1.35s1.875 1.169 2.4 1.931c.525.762.787 1.687.787 2.775 0 .887-.188 1.7-.563 2.438-.362.738-.894 1.375-1.594 1.913-.688.525-1.513.937-2.475 1.237-.95.288-2.019.431-3.206.431-1.788 0-3.3-.319-4.538-.956s-2.175-1.462-2.812-2.475c-.638-1.012-.956-2.081-.956-3.206h3.488c.05.95.325 1.706.825 2.269.5.55 1.113.944 1.837 1.181a7.245 7.245 0 0 0 2.156.337c.95 0 1.744-.125 2.381-.375.65-.25 1.144-.594 1.481-1.031s.506-.938.506-1.5zm16.144 2.907c.825 0 1.588-.169 2.288-.506s1.275-.8 1.725-1.388c.45-.6.706-1.281.769-2.044h3.3c-.063 1.2-.469 2.319-1.219 3.356-.737 1.025-1.706 1.856-2.906 2.494-1.2.625-2.519.938-3.956.938-1.525 0-2.856-.269-3.994-.806a7.907 7.907 0 0 1-2.812-2.213 9.885 9.885 0 0 1-1.669-3.225 13.593 13.593 0 0 1-.544-3.881v-.788c0-1.363.181-2.65.544-3.863.375-1.225.931-2.306 1.669-3.244a7.915 7.915 0 0 1 2.812-2.213c1.138-.537 2.469-.806 3.994-.806 1.588 0 2.975.325 4.163.975 1.187.637 2.119 1.512 2.794 2.625.687 1.1 1.062 2.35 1.125 3.75h-3.3a4.997 4.997 0 0 0-.713-2.269 4.443 4.443 0 0 0-1.65-1.613c-.688-.412-1.494-.619-2.419-.619-1.062 0-1.956.213-2.681.637a4.687 4.687 0 0 0-1.706 1.688 7.847 7.847 0 0 0-.9 2.344c-.175.85-.262 1.719-.262 2.606v.788c0 .887.087 1.763.262 2.625s.469 1.644.881 2.344c.425.7.994 1.262 1.706 1.687.725.413 1.625.619 2.7.619zm15.45-14.625v17.1h-3.469V9.579h3.375l.094 3.188zm6.338-3.3-.019 3.225a5.028 5.028 0 0 0-.825-.113 8.785 8.785 0 0 0-.862-.037c-.8 0-1.506.125-2.119.375s-1.131.6-1.556 1.05a5.06 5.06 0 0 0-1.012 1.612 7.76 7.76 0 0 0-.469 2.025l-.975.563c0-1.225.119-2.375.356-3.45.25-1.075.631-2.025 1.144-2.85.512-.838 1.162-1.488 1.95-1.95.8-.475 1.75-.713 2.85-.713.25 0 .538.031.862.094.325.05.55.106.675.169zm6.974.112v20.288h-3.487V9.579h3.487zm-3.75-5.381c0-.563.169-1.037.506-1.425.35-.388.862-.581 1.537-.581.663 0 1.169.194 1.519.581.363.388.544.862.544 1.425 0 .537-.181 1-.544 1.388-.35.375-.856.563-1.519.563-.675 0-1.187-.188-1.537-.563a2.04 2.04 0 0 1-.506-1.388zm9.301-3.131h3.488V25.93l-.3 3.938h-3.187v-28.8zm17.193 18.487v.394c0 1.475-.175 2.844-.525 4.106-.35 1.25-.863 2.337-1.537 3.262s-1.5 1.644-2.475 2.156c-.975.513-2.094.769-3.356.769-1.287 0-2.419-.219-3.394-.656-.963-.45-1.775-1.094-2.438-1.931s-1.194-1.85-1.594-3.037c-.387-1.188-.656-2.525-.806-4.013v-1.725c.15-1.5.419-2.844.806-4.031.4-1.188.931-2.2 1.594-3.037a6.41 6.41 0 0 1 2.438-1.931c.962-.45 2.081-.675 3.356-.675s2.406.25 3.394.75a6.682 6.682 0 0 1 2.475 2.1c.675.912 1.187 2.006 1.537 3.281.35 1.263.525 2.669.525 4.219zm-3.487.394v-.394c0-1.012-.094-1.963-.281-2.85-.188-.9-.487-1.688-.9-2.363a4.486 4.486 0 0 0-1.631-1.613c-.675-.4-1.506-.6-2.494-.6-.875 0-1.638.15-2.288.45-.637.3-1.181.706-1.631 1.219-.45.5-.819 1.075-1.106 1.725a9.927 9.927 0 0 0-.619 1.988v4.519c.2.875.525 1.719.975 2.531a5.91 5.91 0 0 0 1.837 1.969c.775.513 1.731.769 2.869.769.937 0 1.737-.188 2.4-.563a4.52 4.52 0 0 0 1.631-1.594c.425-.675.738-1.456.938-2.344s.3-1.837.3-2.85zm16.294 10.294c-1.412 0-2.694-.237-3.844-.713a8.714 8.714 0 0 1-2.944-2.044c-.813-.875-1.438-1.913-1.875-3.113s-.656-2.512-.656-3.938v-.788c0-1.65.244-3.119.731-4.406.487-1.3 1.15-2.4 1.987-3.3s1.788-1.581 2.85-2.044a8.178 8.178 0 0 1 3.3-.694c1.45 0 2.7.25 3.75.75a6.84 6.84 0 0 1 2.606 2.1c.675.887 1.175 1.938 1.5 3.15.325 1.2.487 2.513.487 3.937v1.556h-15.15v-2.831h11.681v-.262a8.622 8.622 0 0 0-.563-2.625c-.312-.85-.812-1.55-1.5-2.1s-1.625-.825-2.812-.825c-.788 0-1.513.169-2.175.506-.662.325-1.231.812-1.706 1.463s-.844 1.444-1.106 2.381c-.263.938-.394 2.019-.394 3.244v.788c0 .963.131 1.869.394 2.719a6.955 6.955 0 0 0 1.181 2.212 5.66 5.66 0 0 0 1.894 1.5c.75.362 1.6.544 2.55.544 1.225 0 2.262-.25 3.113-.75s1.594-1.169 2.231-2.006l2.1 1.669c-.437.662-.994 1.294-1.669 1.894s-1.506 1.087-2.494 1.462c-.975.375-2.131.563-3.469.563z"/></symbol><symbol id="icon-youtube-icon" viewBox="0 0 32 32"><path d="m20.55 15.162-6-4a1.035 1.035 0 0 0-1.025-.05A.997.997 0 0 0 13 12v8c-.001.182.047.36.139.517s.226.285.386.371c.147.074.31.112.475.112a1.05 1.05 0 0 0 .55-.162l6-4a1.003 1.003 0 0 0 .454-.837.99.99 0 0 0-.454-.837zM15 18.137v-4.275l3.2 2.137-3.2 2.138zm14.288-9.412a2.937 2.937 0 0 0-1.813-2.038C23.2 5.037 16.375 5.049 16 5.049S8.8 5.036 4.525 6.687a2.944 2.944 0 0 0-1.812 2.038c-.325 1.238-.712 3.513-.712 7.275s.388 6.038.712 7.275a2.946 2.946 0 0 0 1.812 2.038c4.1 1.587 10.525 1.637 11.387 1.637h.175c.862 0 7.287-.05 11.387-1.637a2.944 2.944 0 0 0 1.813-2.038c.325-1.238.712-3.513.712-7.275s-.388-6.037-.712-7.275zm-1.938 14.05a.984.984 0 0 1-.588.675C22.8 24.975 16.074 24.95 16 24.95h-.012c-.063 0-6.788.025-10.75-1.5a.982.982 0 0 1-.588-.675C4.35 21.638 4 19.55 4 16s.35-5.637.65-6.775a.984.984 0 0 1 .588-.675c3.813-1.463 10.213-1.5 10.737-1.5H16c.075 0 6.8-.025 10.762 1.5a.98.98 0 0 1 .588.675c.3 1.137.65 3.225.65 6.775s-.35 5.638-.65 6.775z"/></symbol><symbol id="icon-checbox-galochka" viewBox="0 0 16 16">
<path stroke-linejoin="round" stroke-linecap="round" stroke-miterlimit="4" stroke-width="1.8462" d="M13.333 4l-7.333 7.333-3.333-3.333"></path>
</symbol></defs></svg>