<svg xmlns="http://www.w3.org/2000/svg" aria-hidden="true" style="position:absolute;width:0;height:0;overflow:hidden">
  <defs>
    <symbol id="icon-facebook-icon" viewBox="0 0 32 32">
      <path d="M31.167 16a15.161 15.161 0 0 0-9.363-14.012 15.168 15.168 0 1 0-5.805 29.18 15.18 15.18 0 0 0 15.167-15.167zm-14 12.775V19.5h3.5a1.167 1.167 0 0 0 0-2.334h-3.5v-3.5a2.336 2.336 0 0 1 2.333-2.333h2.333a1.167 1.167 0 0 0 0-2.334H19.5a4.685 4.685 0 0 0-4.667 4.667v3.5h-3.5a1.167 1.167 0 0 0 0 2.334h3.5v9.275a12.834 12.834 0 1 1 2.333 0z"/>
    </symbol>
    <symbol id="icon-footer-logo" viewBox="0 0 229 32">
      <path d="M0 32V0h5.702l14.084 10.383h.213L34.083 0h5.702v32h-6.808V8.951l-9.659 6.803V32H16.51V15.754L6.809 8.951V32H.001zM46.174 32V0h6.808v32h-6.808zM59.356 32V0h6.893l21.53 23.004V0h6.808v32h-6.893L66.164 8.951V32h-6.808zM100.96 32V0h6.808v32h-6.808zM114.142 32V0h5.701l14.084 10.383h.213L148.224 0h5.702v32h-6.808V8.951l-9.659 6.803V32h-6.808V15.754l-9.701-6.803V32h-6.808zM157.764 32l13.701-32h10.51l13.701 32h-7.404l-2.893-6.758h-17.317L165.169 32h-7.403zm12.764-12.576h12.382l-5.914-13.829h-.553l-5.914 13.829zM199.51 32V0h6.808v26.182h22.253V32H199.51z"/>
    </symbol>
    <symbol id="icon-instagram-icon" viewBox="0 0 32 32">
      <path d="M16 10a5.998 5.998 0 0 0-4.242 10.243 5.996 5.996 0 0 0 6.539 1.301 5.999 5.999 0 0 0-2.296-11.543zm0 10a4.004 4.004 0 0 1-3.695-2.469 3.992 3.992 0 0 1 .867-4.359A4 4 0 0 1 20 16a4.014 4.014 0 0 1-4 4zm5.5-16.5h-11a6.999 6.999 0 0 0-7 7v11a6.999 6.999 0 0 0 7 7h11a7.003 7.003 0 0 0 7-7v-11a7.003 7.003 0 0 0-7-7zm5 18c0 .657-.129 1.307-.381 1.913s-.62 1.158-1.084 1.622A5.004 5.004 0 0 1 21.5 26.5h-11c-.657 0-1.307-.129-1.913-.381s-1.158-.62-1.622-1.084A5.004 5.004 0 0 1 5.5 21.5v-11a4.997 4.997 0 0 1 5-5h11c.657 0 1.307.129 1.913.381s1.158.62 1.622 1.084A5.004 5.004 0 0 1 26.5 10.5v11zM24 9.5a1.495 1.495 0 0 1-.926 1.385 1.496 1.496 0 0 1-1.635-.326c-.21-.21-.353-.477-.41-.768s-.028-.593.085-.867a1.5 1.5 0 0 1 2.885.574z"/>
    </symbol>
    <symbol id="icon-youtube-icon" viewBox="0 0 32 32">
      <path d="m20.55 15.162-6-4a1.035 1.035 0 0 0-1.025-.05A.997.997 0 0 0 13 12v8c-.001.182.047.36.139.517s.226.285.386.371c.147.074.31.112.475.112a1.05 1.05 0 0 0 .55-.162l6-4a1.003 1.003 0 0 0 .454-.837.99.99 0 0 0-.454-.837zM15 18.137v-4.275l3.2 2.137-3.2 2.138zm14.288-9.412a2.937 2.937 0 0 0-1.813-2.038C23.2 5.037 16.375 5.049 16 5.049S8.8 5.036 4.525 6.687a2.944 2.944 0 0 0-1.812 2.038c-.325 1.238-.712 3.513-.712 7.275s.388 6.038.712 7.275a2.946 2.946 0 0 0 1.812 2.038c4.1 1.587 10.525 1.637 11.387 1.637h.175c.862 0 7.287-.05 11.387-1.637a2.944 2.944 0 0 0 1.813-2.038c.325-1.238.712-3.513.712-7.275s-.388-6.037-.712-7.275zm-1.938 14.05a.984.984 0 0 1-.588.675C22.8 24.975 16.074 24.95 16 24.95h-.012c-.063 0-6.788.025-10.75-1.5a.982.982 0 0 1-.588-.675C4.35 21.638 4 19.55 4 16s.35-5.637.65-6.775a.984.984 0 0 1 .588-.675c3.813-1.463 10.213-1.5 10.737-1.5H16c.075 0 6.8-.025 10.762 1.5a.98.98 0 0 1 .588.675c.3 1.137.65 3.225.65 6.775s-.35 5.638-.65 6.775z"/>
    </symbol>
  </defs>
</svg>
